<svg xmlns="http://www.w3.org/2000/svg" width="368" height="31" viewBox="0 0 368 31" fill="none"><path d="M34.7422 24.2166V0.474836H50.0048V4.54486H39.2192V10.209H49.0551V14.279H39.2192V20.1466H50.2083V24.2166H34.7422Z" fill="#1F1F2C"></path><path d="M56.1678 24.2166L50.809 7.39387H55.3538L59.2543 21.0963H59.8648L63.7652 7.39387H68.3101L62.9512 24.2166H56.1678Z" fill="#1F1F2C"></path><path d="M77.3728 24.6915C75.6995 24.6915 74.2185 24.341 72.9296 23.64C71.6634 22.9165 70.6685 21.9103 69.945 20.6214C69.244 19.31 68.8935 17.7724 68.8935 16.0088V15.6018C68.8935 13.8381 69.244 12.3118 69.945 11.023C70.6459 9.71153 71.6295 8.70533 72.8957 8.00438C74.162 7.28082 75.6317 6.91904 77.3049 6.91904C78.9555 6.91904 80.3914 7.29212 81.6124 8.03829C82.8334 8.76185 83.783 9.77936 84.4614 11.0908C85.1397 12.3797 85.4789 13.8833 85.4789 15.6018V17.0602H73.2349C73.2801 18.2133 73.7097 19.1517 74.5237 19.8753C75.3377 20.5988 76.3326 20.9606 77.5084 20.9606C78.7068 20.9606 79.5887 20.7006 80.1539 20.1805C80.7192 19.6605 81.1488 19.0839 81.4428 18.4508L84.9362 20.2823C84.6196 20.8702 84.1561 21.5146 83.5456 22.2155C82.9577 22.8939 82.1663 23.4818 81.1714 23.9792C80.1765 24.4541 78.9103 24.6915 77.3728 24.6915ZM73.2688 13.872H81.1375C81.0471 12.8997 80.6514 12.1196 79.9504 11.5317C79.2721 10.9438 78.379 10.6499 77.271 10.6499C76.1178 10.6499 75.2021 10.9438 74.5237 11.5317C73.8454 12.1196 73.4271 12.8997 73.2688 13.872Z" fill="#1F1F2C"></path><path d="M88.2651 24.2166V7.39387H92.4708V9.29322H93.0813C93.33 8.61488 93.737 8.11743 94.3023 7.80088C94.8902 7.48432 95.5685 7.32604 96.3373 7.32604H98.3723V11.1247H96.2695C95.1841 11.1247 94.291 11.4187 93.59 12.0066C92.8891 12.5718 92.5386 13.4537 92.5386 14.6521V24.2166H88.2651Z" fill="#1F1F2C"></path><path d="M102.527 31V27.2691H111.684C112.317 27.2691 112.634 26.93 112.634 26.2516V22.012H112.023C111.842 22.3964 111.56 22.7808 111.175 23.1652C110.791 23.5496 110.271 23.8662 109.615 24.1149C108.959 24.3636 108.123 24.488 107.105 24.488C105.794 24.488 104.641 24.194 103.646 23.6061C102.674 22.9956 101.916 22.159 101.373 21.0963C100.831 20.0336 100.559 18.8125 100.559 17.4333V7.39387H104.833V17.0941C104.833 18.3603 105.138 19.31 105.749 19.9431C106.382 20.5762 107.275 20.8928 108.428 20.8928C109.74 20.8928 110.757 20.4632 111.481 19.6039C112.204 18.7221 112.566 17.5011 112.566 15.9409V7.39387H116.84V27.2013C116.84 28.3545 116.5 29.2702 115.822 29.9486C115.144 30.6495 114.239 31 113.109 31H102.527Z" fill="#1F1F2C"></path><path d="M127.022 24.2166C125.914 24.2166 125.009 23.8775 124.308 23.1991C123.63 22.4982 123.291 21.5711 123.291 20.4179V10.9212H119.085V7.39387H123.291V2.17068H127.564V7.39387H132.177V10.9212H127.564V19.6718C127.564 20.3501 127.881 20.6893 128.514 20.6893H131.77V24.2166H127.022Z" fill="#1F1F2C"></path><path d="M135.028 24.2166V0.474836H139.301V9.4628H139.912C140.093 9.10102 140.376 8.73924 140.76 8.37746C141.144 8.01568 141.653 7.72174 142.286 7.49562C142.942 7.2469 143.767 7.12254 144.762 7.12254C146.074 7.12254 147.215 7.42779 148.188 8.03829C149.183 8.62619 149.951 9.4515 150.494 10.5142C151.037 11.5543 151.308 12.7753 151.308 14.1772V24.2166H147.035V14.5164C147.035 13.2502 146.718 12.3005 146.085 11.6674C145.474 11.0343 144.593 10.7177 143.439 10.7177C142.128 10.7177 141.11 11.1586 140.387 12.0405C139.663 12.8997 139.301 14.1094 139.301 15.6696V24.2166H135.028Z" fill="#1F1F2C"></path><path d="M154.91 24.2166V7.39387H159.184V24.2166H154.91ZM157.047 5.4267C156.278 5.4267 155.623 5.17797 155.08 4.68053C154.56 4.18308 154.3 3.52735 154.3 2.71335C154.3 1.89934 154.56 1.24362 155.08 0.746171C155.623 0.248724 156.278 0 157.047 0C157.839 0 158.494 0.248724 159.014 0.746171C159.534 1.24362 159.794 1.89934 159.794 2.71335C159.794 3.52735 159.534 4.18308 159.014 4.68053C158.494 5.17797 157.839 5.4267 157.047 5.4267Z" fill="#1F1F2C"></path><path d="M162.902 24.2166V7.39387H167.108V9.59847H167.718C167.99 9.01058 168.498 8.4566 169.244 7.93654C169.991 7.39387 171.121 7.12254 172.636 7.12254C173.948 7.12254 175.089 7.42779 176.062 8.03829C177.057 8.62619 177.825 9.4515 178.368 10.5142C178.911 11.5543 179.182 12.7753 179.182 14.1772V24.2166H174.909V14.5164C174.909 13.2502 174.592 12.3005 173.959 11.6674C173.348 11.0343 172.467 10.7177 171.313 10.7177C170.002 10.7177 168.984 11.1586 168.261 12.0405C167.537 12.8997 167.176 14.1094 167.176 15.6696V24.2166H162.902Z" fill="#1F1F2C"></path><path d="M181.97 15.8731V15.3304C181.97 13.5667 182.321 12.0631 183.022 10.8195C183.723 9.55325 184.65 8.59227 185.803 7.93654C186.979 7.25821 188.256 6.91904 189.636 6.91904C191.173 6.91904 192.338 7.19037 193.129 7.73304C193.92 8.27571 194.497 8.84099 194.859 9.42888H195.469V7.39387H199.675V27.2013C199.675 28.3545 199.336 29.2702 198.658 29.9486C197.979 30.6495 197.075 31 195.944 31H184.684V27.2691H194.452C195.085 27.2691 195.402 26.93 195.402 26.2516V21.8764H194.791C194.565 22.2381 194.248 22.6112 193.841 22.9956C193.434 23.3574 192.892 23.6627 192.213 23.9114C191.535 24.1601 190.676 24.2845 189.636 24.2845C188.256 24.2845 186.979 23.9566 185.803 23.3009C184.65 22.6225 183.723 21.6616 183.022 20.4179C182.321 19.1517 181.97 17.6368 181.97 15.8731ZM190.857 20.5536C192.168 20.5536 193.265 20.1353 194.147 19.2987C195.028 18.4621 195.469 17.2863 195.469 15.7713V15.4322C195.469 13.8946 195.028 12.7188 194.147 11.9048C193.287 11.0682 192.191 10.6499 190.857 10.6499C189.545 10.6499 188.449 11.0682 187.567 11.9048C186.685 12.7188 186.244 13.8946 186.244 15.4322V15.7713C186.244 17.2863 186.685 18.4621 187.567 19.2987C188.449 20.1353 189.545 20.5536 190.857 20.5536Z" fill="#1F1F2C"></path><path d="M202.649 24.2166V22.2495H206.041V2.44201H202.649V0.474836H214.419C215.775 0.474836 216.985 0.72356 218.048 1.22101C219.11 1.71845 219.936 2.4194 220.524 3.32385C221.134 4.20569 221.439 5.2345 221.439 6.41028V6.68162C221.439 7.78957 221.225 8.70533 220.795 9.42888C220.365 10.1524 219.845 10.7177 219.235 11.1247C218.624 11.5317 218.025 11.8257 217.437 12.0066V12.4136C218.025 12.5492 218.624 12.8319 219.235 13.2615C219.868 13.6685 220.388 14.2338 220.795 14.9573C221.225 15.6809 221.439 16.5966 221.439 17.7046V18.0438C221.439 19.3326 221.123 20.4406 220.49 21.3676C219.879 22.2947 219.031 23.0069 217.946 23.5044C216.883 23.9792 215.673 24.2166 214.317 24.2166H202.649ZM208.212 22.2495H214.113C215.809 22.2495 217.087 21.8538 217.946 21.0624C218.828 20.271 219.269 19.2082 219.269 17.8742V17.6028C219.269 16.2688 218.828 15.2061 217.946 14.4147C217.087 13.6233 215.809 13.2276 214.113 13.2276H208.212V22.2495ZM208.212 11.2604H214.249C215.809 11.2604 217.03 10.876 217.912 10.1072C218.816 9.31583 219.269 8.28702 219.269 7.02079V6.68162C219.269 5.41539 218.816 4.39789 217.912 3.6291C217.03 2.83771 215.809 2.44201 214.249 2.44201H208.212V11.2604Z" fill="#1F1F2C"></path><path d="M225.379 24.2166V0.474836H227.414V24.2166H225.379Z" fill="#1F1F2C"></path><path d="M239.907 24.6915C238.233 24.6915 236.764 24.341 235.497 23.64C234.254 22.9165 233.281 21.9216 232.58 20.6554C231.902 19.3665 231.563 17.8742 231.563 16.1783V15.7713C231.563 14.0755 231.902 12.5945 232.58 11.3282C233.281 10.0394 234.254 9.04449 235.497 8.34355C236.764 7.61999 238.233 7.25821 239.907 7.25821C241.58 7.25821 243.038 7.61999 244.282 8.34355C245.548 9.04449 246.52 10.0394 247.199 11.3282C247.9 12.5945 248.25 14.0755 248.25 15.7713V16.1783C248.25 17.8742 247.9 19.3665 247.199 20.6554C246.52 21.9216 245.548 22.9165 244.282 23.64C243.038 24.341 241.58 24.6915 239.907 24.6915ZM239.907 22.86C241.851 22.86 243.389 22.2495 244.519 21.0284C245.65 19.7848 246.215 18.1455 246.215 16.1105V15.8392C246.215 13.8042 245.65 12.1761 244.519 10.9551C243.389 9.71153 241.851 9.08972 239.907 9.08972C237.985 9.08972 236.447 9.71153 235.294 10.9551C234.163 12.1761 233.598 13.8042 233.598 15.8392V16.1105C233.598 18.1455 234.163 19.7848 235.294 21.0284C236.447 22.2495 237.985 22.86 239.907 22.86Z" fill="#1F1F2C"></path><path d="M259.921 24.6915C258.316 24.6915 256.88 24.3523 255.614 23.674C254.37 22.973 253.387 21.9781 252.663 20.6893C251.94 19.4004 251.578 17.8855 251.578 16.1444V15.8053C251.578 14.0416 251.94 12.5266 252.663 11.2604C253.387 9.97155 254.37 8.98797 255.614 8.30963C256.88 7.60868 258.316 7.25821 259.921 7.25821C261.504 7.25821 262.838 7.56346 263.924 8.17396C265.032 8.76185 265.891 9.54194 266.501 10.5142C267.134 11.4639 267.53 12.4701 267.688 13.5328L265.687 13.9398C265.574 13.058 265.292 12.2553 264.839 11.5317C264.387 10.7856 263.754 10.1977 262.94 9.76805C262.126 9.31583 261.12 9.08972 259.921 9.08972C258.723 9.08972 257.649 9.37236 256.699 9.93764C255.75 10.4803 254.992 11.2604 254.427 12.2779C253.884 13.2728 253.613 14.4599 253.613 15.8392V16.1105C253.613 17.4898 253.884 18.6882 254.427 19.7057C254.992 20.7006 255.75 21.4807 256.699 22.046C257.649 22.5886 258.723 22.86 259.921 22.86C261.73 22.86 263.11 22.3964 264.059 21.4694C265.009 20.5197 265.597 19.3665 265.823 18.0098L267.824 18.4169C267.621 19.4796 267.191 20.4971 266.535 21.4694C265.902 22.419 265.032 23.1991 263.924 23.8096C262.838 24.3975 261.504 24.6915 259.921 24.6915Z" fill="#1F1F2C"></path><path d="M271.811 24.2166V0.474836H273.846V14.7877H274.253L282.698 7.73304H285.683L275.915 15.7713L285.954 24.2166H283.003L274.253 16.7888H273.846V24.2166H271.811Z" fill="#1F1F2C"></path><path d="M295.347 24.6915C293.742 24.6915 292.306 24.3523 291.04 23.674C289.796 22.973 288.813 21.9781 288.089 20.6893C287.366 19.4004 287.004 17.8855 287.004 16.1444V15.8053C287.004 14.0416 287.366 12.5266 288.089 11.2604C288.813 9.97155 289.796 8.98797 291.04 8.30963C292.306 7.60868 293.742 7.25821 295.347 7.25821C296.93 7.25821 298.264 7.56346 299.35 8.17396C300.457 8.76185 301.317 9.54194 301.927 10.5142C302.56 11.4639 302.956 12.4701 303.114 13.5328L301.113 13.9398C301 13.058 300.717 12.2553 300.265 11.5317C299.813 10.7856 299.18 10.1977 298.366 9.76805C297.552 9.31583 296.546 9.08972 295.347 9.08972C294.149 9.08972 293.075 9.37236 292.125 9.93764C291.176 10.4803 290.418 11.2604 289.853 12.2779C289.31 13.2728 289.039 14.4599 289.039 15.8392V16.1105C289.039 17.4898 289.31 18.6882 289.853 19.7057C290.418 20.7006 291.176 21.4807 292.125 22.046C293.075 22.5886 294.149 22.86 295.347 22.86C297.156 22.86 298.535 22.3964 299.485 21.4694C300.435 20.5197 301.023 19.3665 301.249 18.0098L303.25 18.4169C303.046 19.4796 302.617 20.4971 301.961 21.4694C301.328 22.419 300.457 23.1991 299.35 23.8096C298.264 24.3975 296.93 24.6915 295.347 24.6915Z" fill="#1F1F2C"></path><path d="M307.237 24.2166V0.474836H309.272V10.616H309.679C309.95 10.0733 310.323 9.56455 310.798 9.08972C311.295 8.59227 311.928 8.19657 312.697 7.90263C313.489 7.58607 314.472 7.42779 315.648 7.42779C316.846 7.42779 317.943 7.67651 318.938 8.17396C319.933 8.67141 320.724 9.41758 321.312 10.4125C321.923 11.4074 322.228 12.6623 322.228 14.1772V24.2166H320.193V14.3129C320.193 12.504 319.741 11.2152 318.836 10.4464C317.932 9.655 316.722 9.2593 315.207 9.2593C313.511 9.2593 312.098 9.81328 310.967 10.9212C309.837 12.0292 309.272 13.7137 309.272 15.9748V24.2166H307.237Z" fill="#1F1F2C"></path><path d="M332.04 24.6915C330.887 24.6915 329.835 24.4993 328.886 24.1149C327.959 23.7079 327.224 23.12 326.681 22.3512C326.139 21.5824 325.867 20.6554 325.867 19.57C325.867 18.4621 326.139 17.5463 326.681 16.8228C327.224 16.0992 327.959 15.5565 328.886 15.1947C329.813 14.833 330.842 14.6521 331.972 14.6521H338.009V13.3293C338.009 11.9953 337.625 10.9551 336.856 10.209C336.087 9.4628 334.968 9.08972 333.498 9.08972C332.051 9.08972 330.898 9.4515 330.039 10.1751C329.202 10.876 328.637 11.8257 328.343 13.0241L326.376 12.4475C326.647 11.4752 327.077 10.6047 327.665 9.83589C328.253 9.04449 329.033 8.42269 330.005 7.97046C330.977 7.49563 332.142 7.25821 333.498 7.25821C335.579 7.25821 337.184 7.80088 338.315 8.88622C339.468 9.97155 340.044 11.4865 340.044 13.4311V21.4354C340.044 22.1138 340.361 22.453 340.994 22.453H342.588V24.2166H340.418C339.717 24.2166 339.163 24.0131 338.756 23.6061C338.349 23.1765 338.145 22.5999 338.145 21.8764V21.639H337.806C337.512 22.1364 337.128 22.6225 336.653 23.0974C336.201 23.5722 335.601 23.9566 334.855 24.2505C334.109 24.5445 333.171 24.6915 332.04 24.6915ZM332.176 22.86C333.917 22.86 335.319 22.3399 336.381 21.2998C337.467 20.2371 338.009 18.7447 338.009 16.8228V16.4158H332.006C330.83 16.4158 329.847 16.6758 329.055 17.1958C328.287 17.6933 327.902 18.4734 327.902 19.5361C327.902 20.5988 328.298 21.4241 329.089 22.012C329.903 22.5773 330.932 22.86 332.176 22.86Z" fill="#1F1F2C"></path><path d="M345.445 24.2166V7.73304H347.48V24.2166H345.445ZM346.462 4.88403C345.965 4.88403 345.546 4.71444 345.207 4.37527C344.868 4.03611 344.698 3.6178 344.698 3.12035C344.698 2.60029 344.868 2.18198 345.207 1.86543C345.546 1.52626 345.965 1.35667 346.462 1.35667C346.982 1.35667 347.401 1.52626 347.717 1.86543C348.056 2.18198 348.226 2.60029 348.226 3.12035C348.226 3.6178 348.056 4.03611 347.717 4.37527C347.401 4.71444 346.982 4.88403 346.462 4.88403Z" fill="#1F1F2C"></path><path d="M352.443 24.2166V7.73304H354.41V10.7856H354.817C355.224 9.90372 355.891 9.12363 356.818 8.4453C357.745 7.74435 359.09 7.39387 360.854 7.39387C362.052 7.39387 363.149 7.6426 364.144 8.14004C365.139 8.63749 365.93 9.39497 366.518 10.4125C367.129 11.4074 367.434 12.6623 367.434 14.1772V24.2166H365.399V14.3129C365.399 12.504 364.947 11.2039 364.042 10.4125C363.138 9.62108 361.928 9.22538 360.413 9.22538C358.717 9.22538 357.304 9.79066 356.173 10.9212C355.043 12.0292 354.478 13.7137 354.478 15.9748V24.2166H352.443Z" fill="#1F1F2C"></path><rect y="9.73193" width="4.94621" height="4.94621" rx="1" fill="#1F1F2C"></rect><rect y="0.192871" width="4.94621" height="4.94621" rx="1" fill="#4C4ACF"></rect><rect y="19.271" width="4.94621" height="4.94621" rx="1" fill="#248A5F"></rect><rect x="9.53906" y="9.73193" width="4.94621" height="4.94621" rx="1" fill="#2C271F"></rect><rect x="9.53906" y="0.192871" width="4.94621" height="4.94621" rx="1" fill="#1F1F2C"></rect><rect x="9.53906" y="19.271" width="4.94621" height="4.94621" rx="1" fill="#1F1F2C"></rect><rect x="19.0781" y="0.192871" width="4.94621" height="4.94621" rx="1" fill="#B91678"></rect><rect x="19.0781" y="19.271" width="4.94621" height="4.94621" rx="1" fill="#0589D3"></rect></svg>